<svg width="755" height="319" viewBox="0 0 755 319" fill="none" xmlns="http://www.w3.org/2000/svg">
<circle cx="270" cy="160" r="49.5" stroke="black"/>
<path d="M240.706 165.168C239.95 165.168 239.297 165.042 238.746 164.79C238.205 164.529 237.743 164.183 237.36 163.754L238.116 163.096C238.461 163.46 238.839 163.74 239.25 163.936C239.661 164.132 240.155 164.23 240.734 164.23C241.294 164.23 241.751 164.132 242.106 163.936C242.47 163.731 242.652 163.413 242.652 162.984C242.652 162.797 242.615 162.643 242.54 162.522C242.475 162.391 242.381 162.289 242.26 162.214C242.139 162.139 242.003 162.083 241.854 162.046C241.705 161.999 241.546 161.962 241.378 161.934L240.244 161.766C239.992 161.729 239.717 161.677 239.418 161.612C239.129 161.547 238.863 161.444 238.62 161.304C238.377 161.155 238.172 160.959 238.004 160.716C237.845 160.473 237.766 160.156 237.766 159.764C237.766 159.4 237.836 159.087 237.976 158.826C238.125 158.555 238.331 158.331 238.592 158.154C238.853 157.967 239.161 157.832 239.516 157.748C239.871 157.655 240.258 157.608 240.678 157.608C241.331 157.608 241.896 157.711 242.372 157.916C242.857 158.121 243.273 158.406 243.618 158.77L242.89 159.456C242.806 159.353 242.699 159.251 242.568 159.148C242.447 159.036 242.293 158.938 242.106 158.854C241.929 158.761 241.719 158.686 241.476 158.63C241.233 158.574 240.953 158.546 240.636 158.546C240.067 158.546 239.628 158.644 239.32 158.84C239.021 159.036 238.872 159.321 238.872 159.694C238.872 159.881 238.905 160.039 238.97 160.17C239.045 160.291 239.143 160.389 239.264 160.464C239.385 160.539 239.521 160.599 239.67 160.646C239.829 160.683 239.987 160.716 240.146 160.744L241.28 160.912C241.541 160.949 241.817 161.001 242.106 161.066C242.395 161.131 242.661 161.239 242.904 161.388C243.147 161.528 243.347 161.719 243.506 161.962C243.674 162.205 243.758 162.522 243.758 162.914C243.758 163.633 243.478 164.188 242.918 164.58C242.367 164.972 241.63 165.168 240.706 165.168ZM249.464 156.18C249.138 156.18 248.909 156.115 248.778 155.984C248.648 155.844 248.582 155.671 248.582 155.466V155.242C248.582 155.037 248.648 154.869 248.778 154.738C248.909 154.598 249.138 154.528 249.464 154.528C249.791 154.528 250.02 154.598 250.15 154.738C250.281 154.869 250.346 155.037 250.346 155.242V155.466C250.346 155.671 250.281 155.844 250.15 155.984C250.02 156.115 249.791 156.18 249.464 156.18ZM246.3 164.048H248.904V158.728H246.3V157.776H250.024V164.048H252.46V165H246.3V164.048ZM253.967 165V157.776H255.003V158.616H255.059C255.171 158.336 255.33 158.098 255.535 157.902C255.74 157.706 256.044 157.608 256.445 157.608C256.865 157.608 257.178 157.715 257.383 157.93C257.588 158.135 257.714 158.406 257.761 158.742H257.803C257.934 158.415 258.12 158.145 258.363 157.93C258.606 157.715 258.942 157.608 259.371 157.608C259.959 157.608 260.351 157.813 260.547 158.224C260.752 158.635 260.855 159.223 260.855 159.988V165H259.819V160.17C259.819 159.554 259.754 159.129 259.623 158.896C259.502 158.653 259.273 158.532 258.937 158.532C258.638 158.532 258.396 158.63 258.209 158.826C258.022 159.013 257.929 159.302 257.929 159.694V165H256.893V160.17C256.893 159.554 256.828 159.129 256.697 158.896C256.576 158.653 256.352 158.532 256.025 158.532C255.726 158.532 255.479 158.63 255.283 158.826C255.096 159.013 255.003 159.302 255.003 159.694V165H253.967ZM267.513 163.824H267.457C267.383 164.001 267.289 164.174 267.177 164.342C267.065 164.501 266.925 164.641 266.757 164.762C266.599 164.883 266.407 164.981 266.183 165.056C265.959 165.131 265.698 165.168 265.399 165.168C264.643 165.168 264.037 164.93 263.579 164.454C263.122 163.969 262.893 163.287 262.893 162.41V157.776H264.013V162.214C264.013 162.877 264.158 163.371 264.447 163.698C264.737 164.015 265.161 164.174 265.721 164.174C265.945 164.174 266.165 164.146 266.379 164.09C266.594 164.034 266.785 163.95 266.953 163.838C267.121 163.726 267.257 163.586 267.359 163.418C267.462 163.241 267.513 163.031 267.513 162.788V157.776H268.633V165H267.513V163.824ZM271.12 164.048H273.64V155.592H271.12V154.64H274.76V164.048H277.28V165H271.12V164.048ZM285.325 165C284.886 165 284.573 164.888 284.387 164.664C284.2 164.44 284.083 164.16 284.037 163.824H283.967C283.808 164.244 283.551 164.575 283.197 164.818C282.851 165.051 282.385 165.168 281.797 165.168C281.041 165.168 280.439 164.972 279.991 164.58C279.543 164.188 279.319 163.651 279.319 162.97C279.319 162.298 279.561 161.78 280.047 161.416C280.541 161.052 281.335 160.87 282.427 160.87H283.967V160.156C283.967 159.624 283.817 159.227 283.519 158.966C283.22 158.695 282.795 158.56 282.245 158.56C281.759 158.56 281.363 158.658 281.055 158.854C280.747 159.041 280.499 159.297 280.313 159.624L279.557 159.064C279.65 158.877 279.776 158.695 279.935 158.518C280.093 158.341 280.289 158.187 280.523 158.056C280.756 157.916 281.022 157.809 281.321 157.734C281.619 157.65 281.951 157.608 282.315 157.608C283.164 157.608 283.836 157.823 284.331 158.252C284.835 158.681 285.087 159.279 285.087 160.044V164.02H286.095V165H285.325ZM281.993 164.23C282.282 164.23 282.543 164.197 282.777 164.132C283.019 164.057 283.229 163.964 283.407 163.852C283.584 163.731 283.719 163.591 283.813 163.432C283.915 163.264 283.967 163.087 283.967 162.9V161.71H282.427C281.755 161.71 281.265 161.803 280.957 161.99C280.649 162.177 280.495 162.447 280.495 162.802V163.096C280.495 163.469 280.625 163.754 280.887 163.95C281.157 164.137 281.526 164.23 281.993 164.23ZM291.339 165C290.788 165 290.382 164.846 290.121 164.538C289.869 164.23 289.743 163.833 289.743 163.348V158.728H287.335V157.776H289.127C289.37 157.776 289.538 157.729 289.631 157.636C289.734 157.533 289.785 157.361 289.785 157.118V155.228H290.863V157.776H294.153V158.728H290.863V164.048H294.153V165H291.339ZM299.51 165.168C298.987 165.168 298.516 165.079 298.096 164.902C297.685 164.725 297.33 164.473 297.032 164.146C296.742 163.81 296.518 163.413 296.36 162.956C296.201 162.489 296.122 161.971 296.122 161.402C296.122 160.823 296.201 160.301 296.36 159.834C296.528 159.367 296.756 158.971 297.046 158.644C297.335 158.308 297.68 158.051 298.082 157.874C298.492 157.697 298.945 157.608 299.44 157.608C299.925 157.608 300.364 157.697 300.756 157.874C301.157 158.051 301.498 158.299 301.778 158.616C302.058 158.924 302.272 159.293 302.422 159.722C302.571 160.151 302.646 160.623 302.646 161.136V161.668H297.298V162.004C297.298 162.321 297.349 162.615 297.452 162.886C297.554 163.157 297.699 163.39 297.886 163.586C298.082 163.782 298.315 163.936 298.586 164.048C298.866 164.151 299.174 164.202 299.51 164.202C299.995 164.202 300.415 164.09 300.77 163.866C301.124 163.642 301.395 163.334 301.582 162.942L302.408 163.502C302.193 163.987 301.834 164.389 301.33 164.706C300.835 165.014 300.228 165.168 299.51 165.168ZM299.44 158.532C299.132 158.532 298.847 158.588 298.586 158.7C298.324 158.812 298.096 158.966 297.9 159.162C297.713 159.358 297.564 159.591 297.452 159.862C297.349 160.123 297.298 160.413 297.298 160.73V160.828H301.442V160.674C301.442 160.357 301.39 160.067 301.288 159.806C301.194 159.545 301.059 159.321 300.882 159.134C300.714 158.938 300.504 158.789 300.252 158.686C300.009 158.583 299.738 158.532 299.44 158.532Z" fill="black"/>
<circle cx="160" cy="269" r="49.5" stroke="black"/>
<path d="M138.049 274C137.61 274 137.298 273.888 137.111 273.664C136.924 273.44 136.808 273.16 136.761 272.824H136.691C136.532 273.244 136.276 273.575 135.921 273.818C135.576 274.051 135.109 274.168 134.521 274.168C133.765 274.168 133.163 273.972 132.715 273.58C132.267 273.188 132.043 272.651 132.043 271.97C132.043 271.298 132.286 270.78 132.771 270.416C133.266 270.052 134.059 269.87 135.151 269.87H136.691V269.156C136.691 268.624 136.542 268.227 136.243 267.966C135.944 267.695 135.52 267.56 134.969 267.56C134.484 267.56 134.087 267.658 133.779 267.854C133.471 268.041 133.224 268.297 133.037 268.624L132.281 268.064C132.374 267.877 132.5 267.695 132.659 267.518C132.818 267.341 133.014 267.187 133.247 267.056C133.48 266.916 133.746 266.809 134.045 266.734C134.344 266.65 134.675 266.608 135.039 266.608C135.888 266.608 136.56 266.823 137.055 267.252C137.559 267.681 137.811 268.279 137.811 269.044V273.02H138.819V274H138.049ZM134.717 273.23C135.006 273.23 135.268 273.197 135.501 273.132C135.744 273.057 135.954 272.964 136.131 272.852C136.308 272.731 136.444 272.591 136.537 272.432C136.64 272.264 136.691 272.087 136.691 271.9V270.71H135.151C134.479 270.71 133.989 270.803 133.681 270.99C133.373 271.177 133.219 271.447 133.219 271.802V272.096C133.219 272.469 133.35 272.754 133.611 272.95C133.882 273.137 134.25 273.23 134.717 273.23ZM140.886 274V266.776H142.006V267.952H142.062C142.136 267.775 142.23 267.607 142.342 267.448C142.454 267.28 142.589 267.135 142.748 267.014C142.916 266.893 143.112 266.795 143.336 266.72C143.56 266.645 143.821 266.608 144.12 266.608C144.876 266.608 145.482 266.851 145.94 267.336C146.397 267.812 146.626 268.489 146.626 269.366V274H145.506V269.562C145.506 268.899 145.361 268.409 145.072 268.092C144.782 267.765 144.358 267.602 143.798 267.602C143.574 267.602 143.354 267.63 143.14 267.686C142.925 267.742 142.734 267.826 142.566 267.938C142.398 268.05 142.262 268.195 142.16 268.372C142.057 268.549 142.006 268.755 142.006 268.988V274H140.886ZM154.838 274C154.4 274 154.087 273.888 153.9 273.664C153.714 273.44 153.597 273.16 153.55 272.824H153.48C153.322 273.244 153.065 273.575 152.71 273.818C152.365 274.051 151.898 274.168 151.31 274.168C150.554 274.168 149.952 273.972 149.504 273.58C149.056 273.188 148.832 272.651 148.832 271.97C148.832 271.298 149.075 270.78 149.56 270.416C150.055 270.052 150.848 269.87 151.94 269.87H153.48V269.156C153.48 268.624 153.331 268.227 153.032 267.966C152.734 267.695 152.309 267.56 151.758 267.56C151.273 267.56 150.876 267.658 150.568 267.854C150.26 268.041 150.013 268.297 149.826 268.624L149.07 268.064C149.164 267.877 149.29 267.695 149.448 267.518C149.607 267.341 149.803 267.187 150.036 267.056C150.27 266.916 150.536 266.809 150.834 266.734C151.133 266.65 151.464 266.608 151.828 266.608C152.678 266.608 153.35 266.823 153.844 267.252C154.348 267.681 154.6 268.279 154.6 269.044V273.02H155.608V274H154.838ZM151.506 273.23C151.796 273.23 152.057 273.197 152.29 273.132C152.533 273.057 152.743 272.964 152.92 272.852C153.098 272.731 153.233 272.591 153.326 272.432C153.429 272.264 153.48 272.087 153.48 271.9V270.71H151.94C151.268 270.71 150.778 270.803 150.47 270.99C150.162 271.177 150.008 271.447 150.008 271.802V272.096C150.008 272.469 150.139 272.754 150.4 272.95C150.671 273.137 151.04 273.23 151.506 273.23ZM157.423 273.048H159.943V264.592H157.423V263.64H161.063V273.048H163.583V274H157.423V273.048ZM171.235 266.776H172.355L168.771 275.582C168.687 275.787 168.594 275.965 168.491 276.114C168.389 276.273 168.267 276.399 168.127 276.492C167.987 276.595 167.819 276.669 167.623 276.716C167.427 276.772 167.194 276.8 166.923 276.8H165.859V275.848H167.539L168.351 273.86L165.439 266.776H166.587L167.805 269.8L168.883 272.544H168.939L170.017 269.8L171.235 266.776ZM174.282 274V272.922L178.944 267.728H174.436V266.776H180.162V267.854L175.5 273.048H180.302V274H174.282ZM185.812 274.168C185.29 274.168 184.818 274.079 184.398 273.902C183.988 273.725 183.633 273.473 183.334 273.146C183.045 272.81 182.821 272.413 182.662 271.956C182.504 271.489 182.424 270.971 182.424 270.402C182.424 269.823 182.504 269.301 182.662 268.834C182.83 268.367 183.059 267.971 183.348 267.644C183.638 267.308 183.983 267.051 184.384 266.874C184.795 266.697 185.248 266.608 185.742 266.608C186.228 266.608 186.666 266.697 187.058 266.874C187.46 267.051 187.8 267.299 188.08 267.616C188.36 267.924 188.575 268.293 188.724 268.722C188.874 269.151 188.948 269.623 188.948 270.136V270.668H183.6V271.004C183.6 271.321 183.652 271.615 183.754 271.886C183.857 272.157 184.002 272.39 184.188 272.586C184.384 272.782 184.618 272.936 184.888 273.048C185.168 273.151 185.476 273.202 185.812 273.202C186.298 273.202 186.718 273.09 187.072 272.866C187.427 272.642 187.698 272.334 187.884 271.942L188.71 272.502C188.496 272.987 188.136 273.389 187.632 273.706C187.138 274.014 186.531 274.168 185.812 274.168ZM185.742 267.532C185.434 267.532 185.15 267.588 184.888 267.7C184.627 267.812 184.398 267.966 184.202 268.162C184.016 268.358 183.866 268.591 183.754 268.862C183.652 269.123 183.6 269.413 183.6 269.73V269.828H187.744V269.674C187.744 269.357 187.693 269.067 187.59 268.806C187.497 268.545 187.362 268.321 187.184 268.134C187.016 267.938 186.806 267.789 186.554 267.686C186.312 267.583 186.041 267.532 185.742 267.532Z" fill="black"/>
<circle cx="50" cy="160" r="49.5" stroke="black"/>
<path d="M20.6219 165.168C20.1179 165.168 19.6605 165.079 19.2499 164.902C18.8485 164.725 18.5032 164.473 18.2139 164.146C17.9339 163.81 17.7192 163.413 17.5699 162.956C17.4205 162.489 17.3459 161.967 17.3459 161.388C17.3459 160.819 17.4205 160.301 17.5699 159.834C17.7192 159.367 17.9339 158.971 18.2139 158.644C18.5032 158.308 18.8485 158.051 19.2499 157.874C19.6605 157.697 20.1179 157.608 20.6219 157.608C21.1259 157.608 21.5785 157.697 21.9799 157.874C22.3905 158.051 22.7359 158.308 23.0159 158.644C23.3052 158.971 23.5245 159.367 23.6739 159.834C23.8232 160.301 23.8979 160.819 23.8979 161.388C23.8979 161.967 23.8232 162.489 23.6739 162.956C23.5245 163.413 23.3052 163.81 23.0159 164.146C22.7359 164.473 22.3905 164.725 21.9799 164.902C21.5785 165.079 21.1259 165.168 20.6219 165.168ZM20.6219 164.202C21.2472 164.202 21.7512 164.015 22.1339 163.642C22.5165 163.269 22.7079 162.69 22.7079 161.906V160.87C22.7079 160.086 22.5165 159.507 22.1339 159.134C21.7512 158.761 21.2472 158.574 20.6219 158.574C19.9965 158.574 19.4925 158.761 19.1099 159.134C18.7272 159.507 18.5359 160.086 18.5359 160.87V161.906C18.5359 162.69 18.7272 163.269 19.1099 163.642C19.4925 164.015 19.9965 164.202 20.6219 164.202ZM26.1464 157.776H27.2664V158.952H27.3224C27.7891 158.056 28.5311 157.608 29.5484 157.608C30.4351 157.608 31.1257 157.939 31.6204 158.602C32.1244 159.265 32.3764 160.193 32.3764 161.388C32.3764 162.583 32.1244 163.511 31.6204 164.174C31.1257 164.837 30.4351 165.168 29.5484 165.168C28.5311 165.168 27.7891 164.72 27.3224 163.824H27.2664V167.8H26.1464V157.776ZM29.1144 164.174C29.7677 164.174 30.2717 163.978 30.6264 163.586C30.9904 163.185 31.1724 162.657 31.1724 162.004V160.772C31.1724 160.119 30.9904 159.596 30.6264 159.204C30.2717 158.803 29.7677 158.602 29.1144 158.602C28.8624 158.602 28.6244 158.635 28.4004 158.7C28.1764 158.765 27.9804 158.863 27.8124 158.994C27.6444 159.115 27.5091 159.269 27.4064 159.456C27.3131 159.633 27.2664 159.843 27.2664 160.086V162.69C27.2664 162.933 27.3131 163.147 27.4064 163.334C27.5091 163.511 27.6444 163.665 27.8124 163.796C27.9804 163.917 28.1764 164.011 28.4004 164.076C28.6244 164.141 28.8624 164.174 29.1144 164.174ZM37.7609 165C37.2103 165 36.8043 164.846 36.5429 164.538C36.2909 164.23 36.1649 163.833 36.1649 163.348V158.728H33.7569V157.776H35.5489C35.7916 157.776 35.9596 157.729 36.0529 157.636C36.1556 157.533 36.2069 157.361 36.2069 157.118V155.228H37.2849V157.776H40.5749V158.728H37.2849V164.048H40.5749V165H37.7609ZM46.2535 156.18C45.9268 156.18 45.6981 156.115 45.5675 155.984C45.4368 155.844 45.3715 155.671 45.3715 155.466V155.242C45.3715 155.037 45.4368 154.869 45.5675 154.738C45.6981 154.598 45.9268 154.528 46.2535 154.528C46.5801 154.528 46.8088 154.598 46.9395 154.738C47.0701 154.869 47.1355 155.037 47.1355 155.242V155.466C47.1355 155.671 47.0701 155.844 46.9395 155.984C46.8088 156.115 46.5801 156.18 46.2535 156.18ZM43.0895 164.048H45.6935V158.728H43.0895V157.776H46.8135V164.048H49.2495V165H43.0895V164.048ZM50.756 165V157.776H51.792V158.616H51.848C51.96 158.336 52.1187 158.098 52.324 157.902C52.5293 157.706 52.8327 157.608 53.234 157.608C53.654 157.608 53.9667 157.715 54.172 157.93C54.3773 158.135 54.5033 158.406 54.55 158.742H54.592C54.7227 158.415 54.9093 158.145 55.152 157.93C55.3947 157.715 55.7307 157.608 56.16 157.608C56.748 157.608 57.14 157.813 57.336 158.224C57.5413 158.635 57.644 159.223 57.644 159.988V165H56.608V160.17C56.608 159.554 56.5427 159.129 56.412 158.896C56.2907 158.653 56.062 158.532 55.726 158.532C55.4273 158.532 55.1847 158.63 54.998 158.826C54.8113 159.013 54.718 159.302 54.718 159.694V165H53.682V160.17C53.682 159.554 53.6167 159.129 53.486 158.896C53.3647 158.653 53.1407 158.532 52.814 158.532C52.5153 158.532 52.268 158.63 52.072 158.826C51.8853 159.013 51.792 159.302 51.792 159.694V165H50.756ZM63.0425 156.18C62.7159 156.18 62.4872 156.115 62.3565 155.984C62.2259 155.844 62.1605 155.671 62.1605 155.466V155.242C62.1605 155.037 62.2259 154.869 62.3565 154.738C62.4872 154.598 62.7159 154.528 63.0425 154.528C63.3692 154.528 63.5979 154.598 63.7285 154.738C63.8592 154.869 63.9245 155.037 63.9245 155.242V155.466C63.9245 155.671 63.8592 155.844 63.7285 155.984C63.5979 156.115 63.3692 156.18 63.0425 156.18ZM59.8785 164.048H62.4825V158.728H59.8785V157.776H63.6025V164.048H66.0385V165H59.8785V164.048ZM67.9791 165V163.922L72.6411 158.728H68.1331V157.776H73.8591V158.854L69.1971 164.048H73.9991V165H67.9791ZM79.5096 165.168C78.9869 165.168 78.5156 165.079 78.0956 164.902C77.6849 164.725 77.3303 164.473 77.0316 164.146C76.7423 163.81 76.5183 163.413 76.3596 162.956C76.2009 162.489 76.1216 161.971 76.1216 161.402C76.1216 160.823 76.2009 160.301 76.3596 159.834C76.5276 159.367 76.7563 158.971 77.0456 158.644C77.3349 158.308 77.6803 158.051 78.0816 157.874C78.4923 157.697 78.9449 157.608 79.4396 157.608C79.9249 157.608 80.3636 157.697 80.7556 157.874C81.1569 158.051 81.4976 158.299 81.7776 158.616C82.0576 158.924 82.2723 159.293 82.4216 159.722C82.5709 160.151 82.6456 160.623 82.6456 161.136V161.668H77.2976V162.004C77.2976 162.321 77.3489 162.615 77.4516 162.886C77.5543 163.157 77.6989 163.39 77.8856 163.586C78.0816 163.782 78.3149 163.936 78.5856 164.048C78.8656 164.151 79.1736 164.202 79.5096 164.202C79.9949 164.202 80.4149 164.09 80.7696 163.866C81.1243 163.642 81.3949 163.334 81.5816 162.942L82.4076 163.502C82.1929 163.987 81.8336 164.389 81.3296 164.706C80.8349 165.014 80.2283 165.168 79.5096 165.168ZM79.4396 158.532C79.1316 158.532 78.8469 158.588 78.5856 158.7C78.3243 158.812 78.0956 158.966 77.8996 159.162C77.7129 159.358 77.5636 159.591 77.4516 159.862C77.3489 160.123 77.2976 160.413 77.2976 160.73V160.828H81.4416V160.674C81.4416 160.357 81.3903 160.067 81.2876 159.806C81.1943 159.545 81.0589 159.321 80.8816 159.134C80.7136 158.938 80.5036 158.789 80.2516 158.686C80.0089 158.583 79.7383 158.532 79.4396 158.532Z" fill="black"/>
<circle cx="160" cy="50" r="49.5" stroke="black"/>
<path d="M139.77 55V47.776H140.806V48.616H140.862C140.974 48.336 141.132 48.098 141.338 47.902C141.543 47.706 141.846 47.608 142.248 47.608C142.668 47.608 142.98 47.7153 143.186 47.93C143.391 48.1353 143.517 48.406 143.564 48.742H143.606C143.736 48.4153 143.923 48.1447 144.166 47.93C144.408 47.7153 144.744 47.608 145.174 47.608C145.762 47.608 146.154 47.8133 146.35 48.224C146.555 48.6347 146.658 49.2227 146.658 49.988V55H145.622V50.17C145.622 49.554 145.556 49.1293 145.426 48.896C145.304 48.6533 145.076 48.532 144.74 48.532C144.441 48.532 144.198 48.63 144.012 48.826C143.825 49.0127 143.732 49.302 143.732 49.694V55H142.696V50.17C142.696 49.554 142.63 49.1293 142.5 48.896C142.378 48.6533 142.154 48.532 141.828 48.532C141.529 48.532 141.282 48.63 141.086 48.826C140.899 49.0127 140.806 49.302 140.806 49.694V55H139.77ZM151.608 55.168C151.104 55.168 150.647 55.0793 150.236 54.902C149.835 54.7247 149.49 54.4727 149.2 54.146C148.92 53.81 148.706 53.4133 148.556 52.956C148.407 52.4893 148.332 51.9667 148.332 51.388C148.332 50.8187 148.407 50.3007 148.556 49.834C148.706 49.3673 148.92 48.9707 149.2 48.644C149.49 48.308 149.835 48.0513 150.236 47.874C150.647 47.6967 151.104 47.608 151.608 47.608C152.112 47.608 152.565 47.6967 152.966 47.874C153.377 48.0513 153.722 48.308 154.002 48.644C154.292 48.9707 154.511 49.3673 154.66 49.834C154.81 50.3007 154.884 50.8187 154.884 51.388C154.884 51.9667 154.81 52.4893 154.66 52.956C154.511 53.4133 154.292 53.81 154.002 54.146C153.722 54.4727 153.377 54.7247 152.966 54.902C152.565 55.0793 152.112 55.168 151.608 55.168ZM151.608 54.202C152.234 54.202 152.738 54.0153 153.12 53.642C153.503 53.2687 153.694 52.69 153.694 51.906V50.87C153.694 50.086 153.503 49.5073 153.12 49.134C152.738 48.7607 152.234 48.574 151.608 48.574C150.983 48.574 150.479 48.7607 150.096 49.134C149.714 49.5073 149.522 50.086 149.522 50.87V51.906C149.522 52.69 149.714 53.2687 150.096 53.642C150.479 54.0153 150.983 54.202 151.608 54.202ZM161.753 53.824H161.697C161.23 54.72 160.488 55.168 159.471 55.168C158.584 55.168 157.889 54.8367 157.385 54.174C156.89 53.5113 156.643 52.5827 156.643 51.388C156.643 50.1933 156.89 49.2647 157.385 48.602C157.889 47.9393 158.584 47.608 159.471 47.608C160.488 47.608 161.23 48.056 161.697 48.952H161.753V44.64H162.873V55H161.753V53.824ZM159.905 54.174C160.157 54.174 160.395 54.1413 160.619 54.076C160.843 54.0107 161.039 53.9173 161.207 53.796C161.375 53.6653 161.505 53.5113 161.599 53.334C161.701 53.1473 161.753 52.9327 161.753 52.69V50.086C161.753 49.8433 161.701 49.6333 161.599 49.456C161.505 49.2693 161.375 49.1153 161.207 48.994C161.039 48.8633 160.843 48.7653 160.619 48.7C160.395 48.6347 160.157 48.602 159.905 48.602C159.251 48.602 158.743 48.8027 158.379 49.204C158.024 49.596 157.847 50.1187 157.847 50.772V52.004C157.847 52.6573 158.024 53.1847 158.379 53.586C158.743 53.978 159.251 54.174 159.905 54.174ZM168.523 55.168C168.001 55.168 167.529 55.0793 167.109 54.902C166.699 54.7247 166.344 54.4727 166.045 54.146C165.756 53.81 165.532 53.4133 165.373 52.956C165.215 52.4893 165.135 51.9713 165.135 51.402C165.135 50.8233 165.215 50.3007 165.373 49.834C165.541 49.3673 165.77 48.9707 166.059 48.644C166.349 48.308 166.694 48.0513 167.095 47.874C167.506 47.6967 167.959 47.608 168.453 47.608C168.939 47.608 169.377 47.6967 169.769 47.874C170.171 48.0513 170.511 48.2987 170.791 48.616C171.071 48.924 171.286 49.2927 171.435 49.722C171.585 50.1513 171.659 50.6227 171.659 51.136V51.668H166.311V52.004C166.311 52.3213 166.363 52.6153 166.465 52.886C166.568 53.1567 166.713 53.39 166.899 53.586C167.095 53.782 167.329 53.936 167.599 54.048C167.879 54.1507 168.187 54.202 168.523 54.202C169.009 54.202 169.429 54.09 169.783 53.866C170.138 53.642 170.409 53.334 170.595 52.942L171.421 53.502C171.207 53.9873 170.847 54.3887 170.343 54.706C169.849 55.014 169.242 55.168 168.523 55.168ZM168.453 48.532C168.145 48.532 167.861 48.588 167.599 48.7C167.338 48.812 167.109 48.966 166.913 49.162C166.727 49.358 166.577 49.5913 166.465 49.862C166.363 50.1233 166.311 50.4127 166.311 50.73V50.828H170.455V50.674C170.455 50.3567 170.404 50.0673 170.301 49.806C170.208 49.5447 170.073 49.3207 169.895 49.134C169.727 48.938 169.517 48.7887 169.265 48.686C169.023 48.5833 168.752 48.532 168.453 48.532ZM173.712 54.048H176.232V45.592H173.712V44.64H177.352V54.048H179.872V55H173.712V54.048Z" fill="black"/>
<path d="M255.5 106.5L255.508 100.727L250.504 103.606L255.5 106.5ZM253.68 102.336C244.908 88.0947 228.874 71.878 213.224 64.0528L212.776 64.9472C228.229 72.6736 244.135 88.7453 252.829 102.86L253.68 102.336Z" fill="black"/>
<path d="M213 256.5L218.773 256.508L215.894 251.504L213 256.5ZM217.164 254.68C231.405 245.908 247.622 229.874 255.447 214.224L254.553 213.776C246.826 229.229 230.755 245.135 216.64 253.829L217.164 254.68Z" fill="black"/>
<path d="M67 214L66.992 219.773L71.996 216.894L67 214ZM68.8199 218.164C77.5917 232.405 93.6261 248.622 109.276 256.447L109.724 255.553C94.2709 247.826 78.3654 231.755 69.6714 217.64L68.8199 218.164Z" fill="black"/>
<path d="M109.5 64L103.727 63.992L106.606 68.996L109.5 64ZM105.336 65.8199C91.0947 74.5917 74.878 90.6261 67.0528 106.276L67.9472 106.724C75.6736 91.2709 91.7453 75.3654 105.86 66.6714L105.336 65.8199Z" fill="black"/>
<circle cx="419" cy="160" r="49.5" stroke="black"/>
<path d="M384.881 154.826C384.881 155.554 384.578 156.091 383.971 156.436C383.365 156.791 382.455 156.968 381.241 156.968C380.075 156.968 379.235 156.814 378.721 156.506C378.217 156.198 377.965 155.755 377.965 155.176C377.965 154.784 378.068 154.481 378.273 154.266C378.479 154.051 378.768 153.893 379.141 153.79V153.622C378.936 153.519 378.777 153.389 378.665 153.23C378.553 153.071 378.497 152.871 378.497 152.628C378.497 152.255 378.619 151.975 378.861 151.788C379.113 151.601 379.426 151.461 379.799 151.368V151.312C379.351 151.116 379.001 150.827 378.749 150.444C378.507 150.061 378.385 149.613 378.385 149.1C378.385 148.736 378.451 148.4 378.581 148.092C378.712 147.784 378.899 147.523 379.141 147.308C379.393 147.084 379.692 146.911 380.037 146.79C380.383 146.669 380.765 146.608 381.185 146.608C381.727 146.608 382.203 146.706 382.613 146.902V146.776C382.613 146.496 382.679 146.263 382.809 146.076C382.94 145.889 383.164 145.796 383.481 145.796H384.811V146.776H383.187V147.266C383.449 147.49 383.649 147.756 383.789 148.064C383.929 148.372 383.999 148.717 383.999 149.1C383.999 149.464 383.929 149.8 383.789 150.108C383.659 150.416 383.472 150.682 383.229 150.906C382.987 151.121 382.688 151.289 382.333 151.41C381.988 151.531 381.605 151.592 381.185 151.592C381.064 151.592 380.947 151.587 380.835 151.578C380.723 151.569 380.611 151.555 380.499 151.536C380.387 151.555 380.271 151.587 380.149 151.634C380.028 151.671 379.916 151.727 379.813 151.802C379.711 151.867 379.627 151.947 379.561 152.04C379.496 152.133 379.463 152.241 379.463 152.362C379.463 152.577 379.571 152.721 379.785 152.796C380 152.861 380.28 152.894 380.625 152.894H382.221C383.155 152.894 383.831 153.071 384.251 153.426C384.671 153.771 384.881 154.238 384.881 154.826ZM383.831 154.882C383.831 154.593 383.715 154.359 383.481 154.182C383.248 154.014 382.842 153.93 382.263 153.93H379.757C379.272 154.126 379.029 154.453 379.029 154.91C379.029 155.227 379.155 155.498 379.407 155.722C379.659 155.955 380.079 156.072 380.667 156.072H381.759C382.413 156.072 382.921 155.969 383.285 155.764C383.649 155.568 383.831 155.274 383.831 154.882ZM381.185 150.724C381.745 150.724 382.156 150.593 382.417 150.332C382.688 150.071 382.823 149.725 382.823 149.296V148.89C382.823 148.461 382.688 148.12 382.417 147.868C382.156 147.607 381.745 147.476 381.185 147.476C380.625 147.476 380.215 147.607 379.953 147.868C379.692 148.12 379.561 148.461 379.561 148.89V149.296C379.561 149.725 379.692 150.071 379.953 150.332C380.215 150.593 380.625 150.724 381.185 150.724ZM389.748 154.168C389.225 154.168 388.754 154.079 388.334 153.902C387.923 153.725 387.569 153.473 387.27 153.146C386.981 152.81 386.757 152.413 386.598 151.956C386.439 151.489 386.36 150.971 386.36 150.402C386.36 149.823 386.439 149.301 386.598 148.834C386.766 148.367 386.995 147.971 387.284 147.644C387.573 147.308 387.919 147.051 388.32 146.874C388.731 146.697 389.183 146.608 389.678 146.608C390.163 146.608 390.602 146.697 390.994 146.874C391.395 147.051 391.736 147.299 392.016 147.616C392.296 147.924 392.511 148.293 392.66 148.722C392.809 149.151 392.884 149.623 392.884 150.136V150.668H387.536V151.004C387.536 151.321 387.587 151.615 387.69 151.886C387.793 152.157 387.937 152.39 388.124 152.586C388.32 152.782 388.553 152.936 388.824 153.048C389.104 153.151 389.412 153.202 389.748 153.202C390.233 153.202 390.653 153.09 391.008 152.866C391.363 152.642 391.633 152.334 391.82 151.942L392.646 152.502C392.431 152.987 392.072 153.389 391.568 153.706C391.073 154.014 390.467 154.168 389.748 154.168ZM389.678 147.532C389.37 147.532 389.085 147.588 388.824 147.7C388.563 147.812 388.334 147.966 388.138 148.162C387.951 148.358 387.802 148.591 387.69 148.862C387.587 149.123 387.536 149.413 387.536 149.73V149.828H391.68V149.674C391.68 149.357 391.629 149.067 391.526 148.806C391.433 148.545 391.297 148.321 391.12 148.134C390.952 147.938 390.742 147.789 390.49 147.686C390.247 147.583 389.977 147.532 389.678 147.532ZM395.188 154V146.776H396.308V147.952H396.364C396.439 147.775 396.532 147.607 396.644 147.448C396.756 147.28 396.892 147.135 397.05 147.014C397.218 146.893 397.414 146.795 397.638 146.72C397.862 146.645 398.124 146.608 398.422 146.608C399.178 146.608 399.785 146.851 400.242 147.336C400.7 147.812 400.928 148.489 400.928 149.366V154H399.808V149.562C399.808 148.899 399.664 148.409 399.374 148.092C399.085 147.765 398.66 147.602 398.1 147.602C397.876 147.602 397.657 147.63 397.442 147.686C397.228 147.742 397.036 147.826 396.868 147.938C396.7 148.05 396.565 148.195 396.462 148.372C396.36 148.549 396.308 148.755 396.308 148.988V154H395.188ZM406.537 154.168C406.014 154.168 405.543 154.079 405.123 153.902C404.712 153.725 404.358 153.473 404.059 153.146C403.77 152.81 403.546 152.413 403.387 151.956C403.228 151.489 403.149 150.971 403.149 150.402C403.149 149.823 403.228 149.301 403.387 148.834C403.555 148.367 403.784 147.971 404.073 147.644C404.362 147.308 404.708 147.051 405.109 146.874C405.52 146.697 405.972 146.608 406.467 146.608C406.952 146.608 407.391 146.697 407.783 146.874C408.184 147.051 408.525 147.299 408.805 147.616C409.085 147.924 409.3 148.293 409.449 148.722C409.598 149.151 409.673 149.623 409.673 150.136V150.668H404.325V151.004C404.325 151.321 404.376 151.615 404.479 151.886C404.582 152.157 404.726 152.39 404.913 152.586C405.109 152.782 405.342 152.936 405.613 153.048C405.893 153.151 406.201 153.202 406.537 153.202C407.022 153.202 407.442 153.09 407.797 152.866C408.152 152.642 408.422 152.334 408.609 151.942L409.435 152.502C409.22 152.987 408.861 153.389 408.357 153.706C407.862 154.014 407.256 154.168 406.537 154.168ZM406.467 147.532C406.159 147.532 405.874 147.588 405.613 147.7C405.352 147.812 405.123 147.966 404.927 148.162C404.74 148.358 404.591 148.591 404.479 148.862C404.376 149.123 404.325 149.413 404.325 149.73V149.828H408.469V149.674C408.469 149.357 408.418 149.067 408.315 148.806C408.222 148.545 408.086 148.321 407.909 148.134C407.741 147.938 407.531 147.789 407.279 147.686C407.036 147.583 406.766 147.532 406.467 147.532ZM411.683 153.048H413.797V147.728H411.683V146.776H414.917V148.596H414.987C415.137 148.027 415.417 147.583 415.827 147.266C416.247 146.939 416.779 146.776 417.423 146.776H418.431V147.896H417.073C416.429 147.896 415.907 148.083 415.505 148.456C415.113 148.829 414.917 149.319 414.917 149.926V153.048H417.717V154H411.683V153.048ZM425.93 154C425.491 154 425.179 153.888 424.992 153.664C424.805 153.44 424.689 153.16 424.642 152.824H424.572C424.413 153.244 424.157 153.575 423.802 153.818C423.457 154.051 422.99 154.168 422.402 154.168C421.646 154.168 421.044 153.972 420.596 153.58C420.148 153.188 419.924 152.651 419.924 151.97C419.924 151.298 420.167 150.78 420.652 150.416C421.147 150.052 421.94 149.87 423.032 149.87H424.572V149.156C424.572 148.624 424.423 148.227 424.124 147.966C423.825 147.695 423.401 147.56 422.85 147.56C422.365 147.56 421.968 147.658 421.66 147.854C421.352 148.041 421.105 148.297 420.918 148.624L420.162 148.064C420.255 147.877 420.381 147.695 420.54 147.518C420.699 147.341 420.895 147.187 421.128 147.056C421.361 146.916 421.627 146.809 421.926 146.734C422.225 146.65 422.556 146.608 422.92 146.608C423.769 146.608 424.441 146.823 424.936 147.252C425.44 147.681 425.692 148.279 425.692 149.044V153.02H426.7V154H425.93ZM422.598 153.23C422.887 153.23 423.149 153.197 423.382 153.132C423.625 153.057 423.835 152.964 424.012 152.852C424.189 152.731 424.325 152.591 424.418 152.432C424.521 152.264 424.572 152.087 424.572 151.9V150.71H423.032C422.36 150.71 421.87 150.803 421.562 150.99C421.254 151.177 421.1 151.447 421.1 151.802V152.096C421.1 152.469 421.231 152.754 421.492 152.95C421.763 153.137 422.131 153.23 422.598 153.23ZM431.945 154C431.394 154 430.988 153.846 430.727 153.538C430.475 153.23 430.349 152.833 430.349 152.348V147.728H427.941V146.776H429.733C429.975 146.776 430.143 146.729 430.237 146.636C430.339 146.533 430.391 146.361 430.391 146.118V144.228H431.469V146.776H434.759V147.728H431.469V153.048H434.759V154H431.945ZM440.437 145.18C440.11 145.18 439.882 145.115 439.751 144.984C439.62 144.844 439.555 144.671 439.555 144.466V144.242C439.555 144.037 439.62 143.869 439.751 143.738C439.882 143.598 440.11 143.528 440.437 143.528C440.764 143.528 440.992 143.598 441.123 143.738C441.254 143.869 441.319 144.037 441.319 144.242V144.466C441.319 144.671 441.254 144.844 441.123 144.984C440.992 145.115 440.764 145.18 440.437 145.18ZM437.273 153.048H439.877V147.728H437.273V146.776H440.997V153.048H443.433V154H437.273V153.048ZM448.384 154.168C447.88 154.168 447.422 154.079 447.012 153.902C446.61 153.725 446.265 153.473 445.976 153.146C445.696 152.81 445.481 152.413 445.332 151.956C445.182 151.489 445.108 150.967 445.108 150.388C445.108 149.819 445.182 149.301 445.332 148.834C445.481 148.367 445.696 147.971 445.976 147.644C446.265 147.308 446.61 147.051 447.012 146.874C447.422 146.697 447.88 146.608 448.384 146.608C448.888 146.608 449.34 146.697 449.742 146.874C450.152 147.051 450.498 147.308 450.778 147.644C451.067 147.971 451.286 148.367 451.436 148.834C451.585 149.301 451.66 149.819 451.66 150.388C451.66 150.967 451.585 151.489 451.436 151.956C451.286 152.413 451.067 152.81 450.778 153.146C450.498 153.473 450.152 153.725 449.742 153.902C449.34 154.079 448.888 154.168 448.384 154.168ZM448.384 153.202C449.009 153.202 449.513 153.015 449.896 152.642C450.278 152.269 450.47 151.69 450.47 150.906V149.87C450.47 149.086 450.278 148.507 449.896 148.134C449.513 147.761 449.009 147.574 448.384 147.574C447.758 147.574 447.254 147.761 446.872 148.134C446.489 148.507 446.298 149.086 446.298 149.87V150.906C446.298 151.69 446.489 152.269 446.872 152.642C447.254 153.015 447.758 153.202 448.384 153.202ZM453.95 154V146.776H455.07V147.952H455.126C455.201 147.775 455.294 147.607 455.406 147.448C455.518 147.28 455.653 147.135 455.812 147.014C455.98 146.893 456.176 146.795 456.4 146.72C456.624 146.645 456.885 146.608 457.184 146.608C457.94 146.608 458.547 146.851 459.004 147.336C459.461 147.812 459.69 148.489 459.69 149.366V154H458.57V149.562C458.57 148.899 458.425 148.409 458.136 148.092C457.847 147.765 457.422 147.602 456.862 147.602C456.638 147.602 456.419 147.63 456.204 147.686C455.989 147.742 455.798 147.826 455.63 147.938C455.462 148.05 455.327 148.195 455.224 148.372C455.121 148.549 455.07 148.755 455.07 148.988V154H453.95ZM412.677 171.976H410.829V171.052H412.845L413.167 169.176H411.333V168.252H413.335L413.867 165.228H414.889L413.167 175H412.145L412.677 171.976ZM416.443 165.228H417.465L416.933 168.252H418.781V169.176H416.765L416.443 171.052H418.277V171.976H416.275L415.743 175H414.721L416.443 165.228ZM420.19 175V173.978H422.99V166.096H422.892L420.428 168.392L419.742 167.65L422.332 165.228H424.166V173.978H426.742V175H420.19Z" fill="black"/>
<circle cx="539" cy="160" r="49.5" stroke="black"/>
<path d="M504.881 154.826C504.881 155.554 504.578 156.091 503.971 156.436C503.365 156.791 502.455 156.968 501.241 156.968C500.075 156.968 499.235 156.814 498.721 156.506C498.217 156.198 497.965 155.755 497.965 155.176C497.965 154.784 498.068 154.481 498.273 154.266C498.479 154.051 498.768 153.893 499.141 153.79V153.622C498.936 153.519 498.777 153.389 498.665 153.23C498.553 153.071 498.497 152.871 498.497 152.628C498.497 152.255 498.619 151.975 498.861 151.788C499.113 151.601 499.426 151.461 499.799 151.368V151.312C499.351 151.116 499.001 150.827 498.749 150.444C498.507 150.061 498.385 149.613 498.385 149.1C498.385 148.736 498.451 148.4 498.581 148.092C498.712 147.784 498.899 147.523 499.141 147.308C499.393 147.084 499.692 146.911 500.037 146.79C500.383 146.669 500.765 146.608 501.185 146.608C501.727 146.608 502.203 146.706 502.613 146.902V146.776C502.613 146.496 502.679 146.263 502.809 146.076C502.94 145.889 503.164 145.796 503.481 145.796H504.811V146.776H503.187V147.266C503.449 147.49 503.649 147.756 503.789 148.064C503.929 148.372 503.999 148.717 503.999 149.1C503.999 149.464 503.929 149.8 503.789 150.108C503.659 150.416 503.472 150.682 503.229 150.906C502.987 151.121 502.688 151.289 502.333 151.41C501.988 151.531 501.605 151.592 501.185 151.592C501.064 151.592 500.947 151.587 500.835 151.578C500.723 151.569 500.611 151.555 500.499 151.536C500.387 151.555 500.271 151.587 500.149 151.634C500.028 151.671 499.916 151.727 499.813 151.802C499.711 151.867 499.627 151.947 499.561 152.04C499.496 152.133 499.463 152.241 499.463 152.362C499.463 152.577 499.571 152.721 499.785 152.796C500 152.861 500.28 152.894 500.625 152.894H502.221C503.155 152.894 503.831 153.071 504.251 153.426C504.671 153.771 504.881 154.238 504.881 154.826ZM503.831 154.882C503.831 154.593 503.715 154.359 503.481 154.182C503.248 154.014 502.842 153.93 502.263 153.93H499.757C499.272 154.126 499.029 154.453 499.029 154.91C499.029 155.227 499.155 155.498 499.407 155.722C499.659 155.955 500.079 156.072 500.667 156.072H501.759C502.413 156.072 502.921 155.969 503.285 155.764C503.649 155.568 503.831 155.274 503.831 154.882ZM501.185 150.724C501.745 150.724 502.156 150.593 502.417 150.332C502.688 150.071 502.823 149.725 502.823 149.296V148.89C502.823 148.461 502.688 148.12 502.417 147.868C502.156 147.607 501.745 147.476 501.185 147.476C500.625 147.476 500.215 147.607 499.953 147.868C499.692 148.12 499.561 148.461 499.561 148.89V149.296C499.561 149.725 499.692 150.071 499.953 150.332C500.215 150.593 500.625 150.724 501.185 150.724ZM509.748 154.168C509.225 154.168 508.754 154.079 508.334 153.902C507.923 153.725 507.569 153.473 507.27 153.146C506.981 152.81 506.757 152.413 506.598 151.956C506.439 151.489 506.36 150.971 506.36 150.402C506.36 149.823 506.439 149.301 506.598 148.834C506.766 148.367 506.995 147.971 507.284 147.644C507.573 147.308 507.919 147.051 508.32 146.874C508.731 146.697 509.183 146.608 509.678 146.608C510.163 146.608 510.602 146.697 510.994 146.874C511.395 147.051 511.736 147.299 512.016 147.616C512.296 147.924 512.511 148.293 512.66 148.722C512.809 149.151 512.884 149.623 512.884 150.136V150.668H507.536V151.004C507.536 151.321 507.587 151.615 507.69 151.886C507.793 152.157 507.937 152.39 508.124 152.586C508.32 152.782 508.553 152.936 508.824 153.048C509.104 153.151 509.412 153.202 509.748 153.202C510.233 153.202 510.653 153.09 511.008 152.866C511.363 152.642 511.633 152.334 511.82 151.942L512.646 152.502C512.431 152.987 512.072 153.389 511.568 153.706C511.073 154.014 510.467 154.168 509.748 154.168ZM509.678 147.532C509.37 147.532 509.085 147.588 508.824 147.7C508.563 147.812 508.334 147.966 508.138 148.162C507.951 148.358 507.802 148.591 507.69 148.862C507.587 149.123 507.536 149.413 507.536 149.73V149.828H511.68V149.674C511.68 149.357 511.629 149.067 511.526 148.806C511.433 148.545 511.297 148.321 511.12 148.134C510.952 147.938 510.742 147.789 510.49 147.686C510.247 147.583 509.977 147.532 509.678 147.532ZM515.188 154V146.776H516.308V147.952H516.364C516.439 147.775 516.532 147.607 516.644 147.448C516.756 147.28 516.892 147.135 517.05 147.014C517.218 146.893 517.414 146.795 517.638 146.72C517.862 146.645 518.124 146.608 518.422 146.608C519.178 146.608 519.785 146.851 520.242 147.336C520.7 147.812 520.928 148.489 520.928 149.366V154H519.808V149.562C519.808 148.899 519.664 148.409 519.374 148.092C519.085 147.765 518.66 147.602 518.1 147.602C517.876 147.602 517.657 147.63 517.442 147.686C517.228 147.742 517.036 147.826 516.868 147.938C516.7 148.05 516.565 148.195 516.462 148.372C516.36 148.549 516.308 148.755 516.308 148.988V154H515.188ZM526.537 154.168C526.014 154.168 525.543 154.079 525.123 153.902C524.712 153.725 524.358 153.473 524.059 153.146C523.77 152.81 523.546 152.413 523.387 151.956C523.228 151.489 523.149 150.971 523.149 150.402C523.149 149.823 523.228 149.301 523.387 148.834C523.555 148.367 523.784 147.971 524.073 147.644C524.362 147.308 524.708 147.051 525.109 146.874C525.52 146.697 525.972 146.608 526.467 146.608C526.952 146.608 527.391 146.697 527.783 146.874C528.184 147.051 528.525 147.299 528.805 147.616C529.085 147.924 529.3 148.293 529.449 148.722C529.598 149.151 529.673 149.623 529.673 150.136V150.668H524.325V151.004C524.325 151.321 524.376 151.615 524.479 151.886C524.582 152.157 524.726 152.39 524.913 152.586C525.109 152.782 525.342 152.936 525.613 153.048C525.893 153.151 526.201 153.202 526.537 153.202C527.022 153.202 527.442 153.09 527.797 152.866C528.152 152.642 528.422 152.334 528.609 151.942L529.435 152.502C529.22 152.987 528.861 153.389 528.357 153.706C527.862 154.014 527.256 154.168 526.537 154.168ZM526.467 147.532C526.159 147.532 525.874 147.588 525.613 147.7C525.352 147.812 525.123 147.966 524.927 148.162C524.74 148.358 524.591 148.591 524.479 148.862C524.376 149.123 524.325 149.413 524.325 149.73V149.828H528.469V149.674C528.469 149.357 528.418 149.067 528.315 148.806C528.222 148.545 528.086 148.321 527.909 148.134C527.741 147.938 527.531 147.789 527.279 147.686C527.036 147.583 526.766 147.532 526.467 147.532ZM531.683 153.048H533.797V147.728H531.683V146.776H534.917V148.596H534.987C535.137 148.027 535.417 147.583 535.827 147.266C536.247 146.939 536.779 146.776 537.423 146.776H538.431V147.896H537.073C536.429 147.896 535.907 148.083 535.505 148.456C535.113 148.829 534.917 149.319 534.917 149.926V153.048H537.717V154H531.683V153.048ZM545.93 154C545.491 154 545.179 153.888 544.992 153.664C544.805 153.44 544.689 153.16 544.642 152.824H544.572C544.413 153.244 544.157 153.575 543.802 153.818C543.457 154.051 542.99 154.168 542.402 154.168C541.646 154.168 541.044 153.972 540.596 153.58C540.148 153.188 539.924 152.651 539.924 151.97C539.924 151.298 540.167 150.78 540.652 150.416C541.147 150.052 541.94 149.87 543.032 149.87H544.572V149.156C544.572 148.624 544.423 148.227 544.124 147.966C543.825 147.695 543.401 147.56 542.85 147.56C542.365 147.56 541.968 147.658 541.66 147.854C541.352 148.041 541.105 148.297 540.918 148.624L540.162 148.064C540.255 147.877 540.381 147.695 540.54 147.518C540.699 147.341 540.895 147.187 541.128 147.056C541.361 146.916 541.627 146.809 541.926 146.734C542.225 146.65 542.556 146.608 542.92 146.608C543.769 146.608 544.441 146.823 544.936 147.252C545.44 147.681 545.692 148.279 545.692 149.044V153.02H546.7V154H545.93ZM542.598 153.23C542.887 153.23 543.149 153.197 543.382 153.132C543.625 153.057 543.835 152.964 544.012 152.852C544.189 152.731 544.325 152.591 544.418 152.432C544.521 152.264 544.572 152.087 544.572 151.9V150.71H543.032C542.36 150.71 541.87 150.803 541.562 150.99C541.254 151.177 541.1 151.447 541.1 151.802V152.096C541.1 152.469 541.231 152.754 541.492 152.95C541.763 153.137 542.131 153.23 542.598 153.23ZM551.945 154C551.394 154 550.988 153.846 550.727 153.538C550.475 153.23 550.349 152.833 550.349 152.348V147.728H547.941V146.776H549.733C549.975 146.776 550.143 146.729 550.237 146.636C550.339 146.533 550.391 146.361 550.391 146.118V144.228H551.469V146.776H554.759V147.728H551.469V153.048H554.759V154H551.945ZM560.437 145.18C560.11 145.18 559.882 145.115 559.751 144.984C559.62 144.844 559.555 144.671 559.555 144.466V144.242C559.555 144.037 559.62 143.869 559.751 143.738C559.882 143.598 560.11 143.528 560.437 143.528C560.764 143.528 560.992 143.598 561.123 143.738C561.254 143.869 561.319 144.037 561.319 144.242V144.466C561.319 144.671 561.254 144.844 561.123 144.984C560.992 145.115 560.764 145.18 560.437 145.18ZM557.273 153.048H559.877V147.728H557.273V146.776H560.997V153.048H563.433V154H557.273V153.048ZM568.384 154.168C567.88 154.168 567.422 154.079 567.012 153.902C566.61 153.725 566.265 153.473 565.976 153.146C565.696 152.81 565.481 152.413 565.332 151.956C565.182 151.489 565.108 150.967 565.108 150.388C565.108 149.819 565.182 149.301 565.332 148.834C565.481 148.367 565.696 147.971 565.976 147.644C566.265 147.308 566.61 147.051 567.012 146.874C567.422 146.697 567.88 146.608 568.384 146.608C568.888 146.608 569.34 146.697 569.742 146.874C570.152 147.051 570.498 147.308 570.778 147.644C571.067 147.971 571.286 148.367 571.436 148.834C571.585 149.301 571.66 149.819 571.66 150.388C571.66 150.967 571.585 151.489 571.436 151.956C571.286 152.413 571.067 152.81 570.778 153.146C570.498 153.473 570.152 153.725 569.742 153.902C569.34 154.079 568.888 154.168 568.384 154.168ZM568.384 153.202C569.009 153.202 569.513 153.015 569.896 152.642C570.278 152.269 570.47 151.69 570.47 150.906V149.87C570.47 149.086 570.278 148.507 569.896 148.134C569.513 147.761 569.009 147.574 568.384 147.574C567.758 147.574 567.254 147.761 566.872 148.134C566.489 148.507 566.298 149.086 566.298 149.87V150.906C566.298 151.69 566.489 152.269 566.872 152.642C567.254 153.015 567.758 153.202 568.384 153.202ZM573.95 154V146.776H575.07V147.952H575.126C575.201 147.775 575.294 147.607 575.406 147.448C575.518 147.28 575.653 147.135 575.812 147.014C575.98 146.893 576.176 146.795 576.4 146.72C576.624 146.645 576.885 146.608 577.184 146.608C577.94 146.608 578.547 146.851 579.004 147.336C579.461 147.812 579.69 148.489 579.69 149.366V154H578.57V149.562C578.57 148.899 578.425 148.409 578.136 148.092C577.847 147.765 577.422 147.602 576.862 147.602C576.638 147.602 576.419 147.63 576.204 147.686C575.989 147.742 575.798 147.826 575.63 147.938C575.462 148.05 575.327 148.195 575.224 148.372C575.121 148.549 575.07 148.755 575.07 148.988V154H573.95ZM532.677 171.976H530.829V171.052H532.845L533.167 169.176H531.333V168.252H533.335L533.867 165.228H534.889L533.167 175H532.145L532.677 171.976ZM536.443 165.228H537.465L536.933 168.252H538.781V169.176H536.765L536.443 171.052H538.277V171.976H536.275L535.743 175H534.721L536.443 165.228ZM546.518 175H539.994V173.796L543.256 170.856C543.732 170.427 544.124 169.988 544.432 169.54C544.74 169.083 544.894 168.602 544.894 168.098V167.93C544.894 167.342 544.74 166.889 544.432 166.572C544.124 166.245 543.667 166.082 543.06 166.082C542.463 166.082 542.001 166.236 541.674 166.544C541.357 166.843 541.119 167.244 540.96 167.748L539.91 167.356C540.003 167.067 540.129 166.787 540.288 166.516C540.456 166.236 540.666 165.989 540.918 165.774C541.17 165.559 541.473 165.387 541.828 165.256C542.192 165.125 542.612 165.06 543.088 165.06C543.573 165.06 544.003 165.13 544.376 165.27C544.759 165.41 545.076 165.606 545.328 165.858C545.589 166.11 545.785 166.409 545.916 166.754C546.056 167.099 546.126 167.477 546.126 167.888C546.126 168.261 546.07 168.611 545.958 168.938C545.855 169.265 545.706 169.577 545.51 169.876C545.323 170.175 545.095 170.469 544.824 170.758C544.563 171.038 544.269 171.318 543.942 171.598L541.212 173.978H546.518V175Z" fill="black"/>
<circle cx="705" cy="160" r="49.5" stroke="black"/>
<path d="M686.266 163.824H686.21C685.744 164.72 685.002 165.168 683.984 165.168C683.098 165.168 682.402 164.837 681.898 164.174C681.404 163.511 681.156 162.583 681.156 161.388C681.156 160.193 681.404 159.265 681.898 158.602C682.402 157.939 683.098 157.608 683.984 157.608C685.002 157.608 685.744 158.056 686.21 158.952H686.266V154.64H687.386V165H686.266V163.824ZM684.418 164.174C684.67 164.174 684.908 164.141 685.132 164.076C685.356 164.011 685.552 163.917 685.72 163.796C685.888 163.665 686.019 163.511 686.112 163.334C686.215 163.147 686.266 162.933 686.266 162.69V160.086C686.266 159.843 686.215 159.633 686.112 159.456C686.019 159.269 685.888 159.115 685.72 158.994C685.552 158.863 685.356 158.765 685.132 158.7C684.908 158.635 684.67 158.602 684.418 158.602C683.765 158.602 683.256 158.803 682.892 159.204C682.538 159.596 682.36 160.119 682.36 160.772V162.004C682.36 162.657 682.538 163.185 682.892 163.586C683.256 163.978 683.765 164.174 684.418 164.174ZM693.037 165.168C692.514 165.168 692.043 165.079 691.623 164.902C691.212 164.725 690.858 164.473 690.559 164.146C690.27 163.81 690.046 163.413 689.887 162.956C689.728 162.489 689.649 161.971 689.649 161.402C689.649 160.823 689.728 160.301 689.887 159.834C690.055 159.367 690.284 158.971 690.573 158.644C690.862 158.308 691.208 158.051 691.609 157.874C692.02 157.697 692.472 157.608 692.967 157.608C693.452 157.608 693.891 157.697 694.283 157.874C694.684 158.051 695.025 158.299 695.305 158.616C695.585 158.924 695.8 159.293 695.949 159.722C696.098 160.151 696.173 160.623 696.173 161.136V161.668H690.825V162.004C690.825 162.321 690.876 162.615 690.979 162.886C691.082 163.157 691.226 163.39 691.413 163.586C691.609 163.782 691.842 163.936 692.113 164.048C692.393 164.151 692.701 164.202 693.037 164.202C693.522 164.202 693.942 164.09 694.297 163.866C694.652 163.642 694.922 163.334 695.109 162.942L695.935 163.502C695.72 163.987 695.361 164.389 694.857 164.706C694.362 165.014 693.756 165.168 693.037 165.168ZM692.967 158.532C692.659 158.532 692.374 158.588 692.113 158.7C691.852 158.812 691.623 158.966 691.427 159.162C691.24 159.358 691.091 159.591 690.979 159.862C690.876 160.123 690.825 160.413 690.825 160.73V160.828H694.969V160.674C694.969 160.357 694.918 160.067 694.815 159.806C694.722 159.545 694.586 159.321 694.409 159.134C694.241 158.938 694.031 158.789 693.779 158.686C693.536 158.583 693.266 158.532 692.967 158.532ZM698.435 157.776H699.555V158.952H699.611C700.078 158.056 700.82 157.608 701.837 157.608C702.724 157.608 703.415 157.939 703.909 158.602C704.413 159.265 704.665 160.193 704.665 161.388C704.665 162.583 704.413 163.511 703.909 164.174C703.415 164.837 702.724 165.168 701.837 165.168C700.82 165.168 700.078 164.72 699.611 163.824H699.555V167.8H698.435V157.776ZM701.403 164.174C702.057 164.174 702.561 163.978 702.915 163.586C703.279 163.185 703.461 162.657 703.461 162.004V160.772C703.461 160.119 703.279 159.596 702.915 159.204C702.561 158.803 702.057 158.602 701.403 158.602C701.151 158.602 700.913 158.635 700.689 158.7C700.465 158.765 700.269 158.863 700.101 158.994C699.933 159.115 699.798 159.269 699.695 159.456C699.602 159.633 699.555 159.843 699.555 160.086V162.69C699.555 162.933 699.602 163.147 699.695 163.334C699.798 163.511 699.933 163.665 700.101 163.796C700.269 163.917 700.465 164.011 700.689 164.076C700.913 164.141 701.151 164.174 701.403 164.174ZM706.62 164.048H709.14V155.592H706.62V154.64H710.26V164.048H712.78V165H706.62V164.048ZM718.095 165.168C717.591 165.168 717.133 165.079 716.723 164.902C716.321 164.725 715.976 164.473 715.687 164.146C715.407 163.81 715.192 163.413 715.043 162.956C714.893 162.489 714.819 161.967 714.819 161.388C714.819 160.819 714.893 160.301 715.043 159.834C715.192 159.367 715.407 158.971 715.687 158.644C715.976 158.308 716.321 158.051 716.723 157.874C717.133 157.697 717.591 157.608 718.095 157.608C718.599 157.608 719.051 157.697 719.453 157.874C719.863 158.051 720.209 158.308 720.489 158.644C720.778 158.971 720.997 159.367 721.147 159.834C721.296 160.301 721.371 160.819 721.371 161.388C721.371 161.967 721.296 162.489 721.147 162.956C720.997 163.413 720.778 163.81 720.489 164.146C720.209 164.473 719.863 164.725 719.453 164.902C719.051 165.079 718.599 165.168 718.095 165.168ZM718.095 164.202C718.72 164.202 719.224 164.015 719.607 163.642C719.989 163.269 720.181 162.69 720.181 161.906V160.87C720.181 160.086 719.989 159.507 719.607 159.134C719.224 158.761 718.72 158.574 718.095 158.574C717.469 158.574 716.965 158.761 716.583 159.134C716.2 159.507 716.009 160.086 716.009 160.87V161.906C716.009 162.69 716.2 163.269 716.583 163.642C716.965 164.015 717.469 164.202 718.095 164.202ZM728.827 157.776H729.947L726.363 166.582C726.279 166.787 726.186 166.965 726.083 167.114C725.98 167.273 725.859 167.399 725.719 167.492C725.579 167.595 725.411 167.669 725.215 167.716C725.019 167.772 724.786 167.8 724.515 167.8H723.451V166.848H725.131L725.943 164.86L723.031 157.776H724.179L725.397 160.8L726.475 163.544H726.531L727.609 160.8L728.827 157.776Z" fill="black"/>
<path d="M613.608 159.126C613.226 159.126 612.955 159.047 612.796 158.888C612.647 158.729 612.572 158.529 612.572 158.286V158.034C612.572 157.791 612.647 157.591 612.796 157.432C612.955 157.273 613.226 157.194 613.608 157.194C613.991 157.194 614.257 157.273 614.406 157.432C614.565 157.591 614.644 157.791 614.644 158.034V158.286C614.644 158.529 614.565 158.729 614.406 158.888C614.257 159.047 613.991 159.126 613.608 159.126ZM622.003 159.126C621.62 159.126 621.349 159.047 621.191 158.888C621.041 158.729 620.967 158.529 620.967 158.286V158.034C620.967 157.791 621.041 157.591 621.191 157.432C621.349 157.273 621.62 157.194 622.003 157.194C622.385 157.194 622.651 157.273 622.801 157.432C622.959 157.591 623.039 157.791 623.039 158.034V158.286C623.039 158.529 622.959 158.729 622.801 158.888C622.651 159.047 622.385 159.126 622.003 159.126ZM630.397 159.126C630.015 159.126 629.744 159.047 629.585 158.888C629.436 158.729 629.361 158.529 629.361 158.286V158.034C629.361 157.791 629.436 157.591 629.585 157.432C629.744 157.273 630.015 157.194 630.397 157.194C630.78 157.194 631.046 157.273 631.195 157.432C631.354 157.591 631.433 157.791 631.433 158.034V158.286C631.433 158.529 631.354 158.729 631.195 158.888C631.046 159.047 630.78 159.126 630.397 159.126Z" fill="black"/>
<path d="M142.966 144.168C142.443 144.168 141.976 144.079 141.566 143.902C141.164 143.715 140.824 143.459 140.544 143.132C140.264 142.805 140.049 142.409 139.9 141.942C139.76 141.475 139.69 140.957 139.69 140.388C139.69 139.819 139.764 139.301 139.914 138.834C140.063 138.367 140.278 137.971 140.558 137.644C140.838 137.308 141.178 137.051 141.58 136.874C141.981 136.697 142.438 136.608 142.952 136.608C143.652 136.608 144.221 136.762 144.66 137.07C145.098 137.378 145.42 137.779 145.626 138.274L144.73 138.75C144.599 138.377 144.38 138.087 144.072 137.882C143.773 137.677 143.4 137.574 142.952 137.574C142.625 137.574 142.331 137.63 142.07 137.742C141.818 137.845 141.603 137.994 141.426 138.19C141.248 138.386 141.113 138.619 141.02 138.89C140.936 139.161 140.894 139.455 140.894 139.772V141.004C140.894 141.321 140.936 141.615 141.02 141.886C141.113 142.157 141.248 142.39 141.426 142.586C141.603 142.782 141.822 142.936 142.084 143.048C142.345 143.151 142.644 143.202 142.98 143.202C143.465 143.202 143.866 143.09 144.184 142.866C144.501 142.642 144.753 142.334 144.94 141.942L145.738 142.488C145.523 142.973 145.187 143.375 144.73 143.692C144.282 144.009 143.694 144.168 142.966 144.168ZM153.446 136.776H154.566L150.982 145.582C150.898 145.787 150.805 145.965 150.702 146.114C150.6 146.273 150.478 146.399 150.338 146.492C150.198 146.595 150.03 146.669 149.834 146.716C149.638 146.772 149.405 146.8 149.134 146.8H148.07V145.848H149.75L150.562 143.86L147.65 136.776H148.798L150.016 139.8L151.094 142.544H151.15L152.228 139.8L153.446 136.776ZM159.755 144.168C159.232 144.168 158.765 144.079 158.355 143.902C157.953 143.715 157.613 143.459 157.333 143.132C157.053 142.805 156.838 142.409 156.689 141.942C156.549 141.475 156.479 140.957 156.479 140.388C156.479 139.819 156.553 139.301 156.703 138.834C156.852 138.367 157.067 137.971 157.347 137.644C157.627 137.308 157.967 137.051 158.369 136.874C158.77 136.697 159.227 136.608 159.741 136.608C160.441 136.608 161.01 136.762 161.449 137.07C161.887 137.378 162.209 137.779 162.415 138.274L161.519 138.75C161.388 138.377 161.169 138.087 160.861 137.882C160.562 137.677 160.189 137.574 159.741 137.574C159.414 137.574 159.12 137.63 158.859 137.742C158.607 137.845 158.392 137.994 158.215 138.19C158.037 138.386 157.902 138.619 157.809 138.89C157.725 139.161 157.683 139.455 157.683 139.772V141.004C157.683 141.321 157.725 141.615 157.809 141.886C157.902 142.157 158.037 142.39 158.215 142.586C158.392 142.782 158.611 142.936 158.873 143.048C159.134 143.151 159.433 143.202 159.769 143.202C160.254 143.202 160.655 143.09 160.973 142.866C161.29 142.642 161.542 142.334 161.729 141.942L162.527 142.488C162.312 142.973 161.976 143.375 161.519 143.692C161.071 144.009 160.483 144.168 159.755 144.168ZM164.817 143.048H167.337V134.592H164.817V133.64H168.457V143.048H170.977V144H164.817V143.048ZM176.418 144.168C175.895 144.168 175.424 144.079 175.004 143.902C174.593 143.725 174.238 143.473 173.94 143.146C173.65 142.81 173.426 142.413 173.268 141.956C173.109 141.489 173.03 140.971 173.03 140.402C173.03 139.823 173.109 139.301 173.268 138.834C173.436 138.367 173.664 137.971 173.954 137.644C174.243 137.308 174.588 137.051 174.99 136.874C175.4 136.697 175.853 136.608 176.348 136.608C176.833 136.608 177.272 136.697 177.664 136.874C178.065 137.051 178.406 137.299 178.686 137.616C178.966 137.924 179.18 138.293 179.33 138.722C179.479 139.151 179.554 139.623 179.554 140.136V140.668H174.206V141.004C174.206 141.321 174.257 141.615 174.36 141.886C174.462 142.157 174.607 142.39 174.794 142.586C174.99 142.782 175.223 142.936 175.494 143.048C175.774 143.151 176.082 143.202 176.418 143.202C176.903 143.202 177.323 143.09 177.678 142.866C178.032 142.642 178.303 142.334 178.49 141.942L179.316 142.502C179.101 142.987 178.742 143.389 178.238 143.706C177.743 144.014 177.136 144.168 176.418 144.168ZM176.348 137.532C176.04 137.532 175.755 137.588 175.494 137.7C175.232 137.812 175.004 137.966 174.808 138.162C174.621 138.358 174.472 138.591 174.36 138.862C174.257 139.123 174.206 139.413 174.206 139.73V139.828H178.35V139.674C178.35 139.357 178.298 139.067 178.196 138.806C178.102 138.545 177.967 138.321 177.79 138.134C177.622 137.938 177.412 137.789 177.16 137.686C176.917 137.583 176.646 137.532 176.348 137.532ZM127.252 157.776H128.372V158.952H128.428C128.895 158.056 129.637 157.608 130.654 157.608C131.541 157.608 132.231 157.939 132.726 158.602C133.23 159.265 133.482 160.193 133.482 161.388C133.482 162.583 133.23 163.511 132.726 164.174C132.231 164.837 131.541 165.168 130.654 165.168C129.637 165.168 128.895 164.72 128.428 163.824H128.372V167.8H127.252V157.776ZM130.22 164.174C130.873 164.174 131.377 163.978 131.732 163.586C132.096 163.185 132.278 162.657 132.278 162.004V160.772C132.278 160.119 132.096 159.596 131.732 159.204C131.377 158.803 130.873 158.602 130.22 158.602C129.968 158.602 129.73 158.635 129.506 158.7C129.282 158.765 129.086 158.863 128.918 158.994C128.75 159.115 128.615 159.269 128.512 159.456C128.419 159.633 128.372 159.843 128.372 160.086V162.69C128.372 162.933 128.419 163.147 128.512 163.334C128.615 163.511 128.75 163.665 128.918 163.796C129.086 163.917 129.282 164.011 129.506 164.076C129.73 164.141 129.968 164.174 130.22 164.174ZM135.394 164.048H137.508V158.728H135.394V157.776H138.628V159.596H138.698C138.848 159.027 139.128 158.583 139.538 158.266C139.958 157.939 140.49 157.776 141.134 157.776H142.142V158.896H140.784C140.14 158.896 139.618 159.083 139.216 159.456C138.824 159.829 138.628 160.319 138.628 160.926V164.048H141.428V165H135.394V164.048ZM146.911 165.168C146.407 165.168 145.95 165.079 145.539 164.902C145.138 164.725 144.792 164.473 144.503 164.146C144.223 163.81 144.008 163.413 143.859 162.956C143.71 162.489 143.635 161.967 143.635 161.388C143.635 160.819 143.71 160.301 143.859 159.834C144.008 159.367 144.223 158.971 144.503 158.644C144.792 158.308 145.138 158.051 145.539 157.874C145.95 157.697 146.407 157.608 146.911 157.608C147.415 157.608 147.868 157.697 148.269 157.874C148.68 158.051 149.025 158.308 149.305 158.644C149.594 158.971 149.814 159.367 149.963 159.834C150.112 160.301 150.187 160.819 150.187 161.388C150.187 161.967 150.112 162.489 149.963 162.956C149.814 163.413 149.594 163.81 149.305 164.146C149.025 164.473 148.68 164.725 148.269 164.902C147.868 165.079 147.415 165.168 146.911 165.168ZM146.911 164.202C147.536 164.202 148.04 164.015 148.423 163.642C148.806 163.269 148.997 162.69 148.997 161.906V160.87C148.997 160.086 148.806 159.507 148.423 159.134C148.04 158.761 147.536 158.574 146.911 158.574C146.286 158.574 145.782 158.761 145.399 159.134C145.016 159.507 144.825 160.086 144.825 160.87V161.906C144.825 162.69 145.016 163.269 145.399 163.642C145.782 164.015 146.286 164.202 146.911 164.202ZM157.055 163.824H156.999C156.533 164.72 155.791 165.168 154.773 165.168C153.887 165.168 153.191 164.837 152.687 164.174C152.193 163.511 151.945 162.583 151.945 161.388C151.945 160.193 152.193 159.265 152.687 158.602C153.191 157.939 153.887 157.608 154.773 157.608C155.791 157.608 156.533 158.056 156.999 158.952H157.055V154.64H158.175V165H157.055V163.824ZM155.207 164.174C155.459 164.174 155.697 164.141 155.921 164.076C156.145 164.011 156.341 163.917 156.509 163.796C156.677 163.665 156.808 163.511 156.901 163.334C157.004 163.147 157.055 162.933 157.055 162.69V160.086C157.055 159.843 157.004 159.633 156.901 159.456C156.808 159.269 156.677 159.115 156.509 158.994C156.341 158.863 156.145 158.765 155.921 158.7C155.697 158.635 155.459 158.602 155.207 158.602C154.554 158.602 154.045 158.803 153.681 159.204C153.327 159.596 153.149 160.119 153.149 160.772V162.004C153.149 162.657 153.327 163.185 153.681 163.586C154.045 163.978 154.554 164.174 155.207 164.174ZM165.408 163.824H165.352C165.277 164.001 165.184 164.174 165.072 164.342C164.96 164.501 164.82 164.641 164.652 164.762C164.493 164.883 164.302 164.981 164.078 165.056C163.854 165.131 163.593 165.168 163.294 165.168C162.538 165.168 161.931 164.93 161.474 164.454C161.017 163.969 160.788 163.287 160.788 162.41V157.776H161.908V162.214C161.908 162.877 162.053 163.371 162.342 163.698C162.631 164.015 163.056 164.174 163.616 164.174C163.84 164.174 164.059 164.146 164.274 164.09C164.489 164.034 164.68 163.95 164.848 163.838C165.016 163.726 165.151 163.586 165.254 163.418C165.357 163.241 165.408 163.031 165.408 162.788V157.776H166.528V165H165.408V163.824ZM172.347 165.168C171.824 165.168 171.357 165.079 170.947 164.902C170.545 164.715 170.205 164.459 169.925 164.132C169.645 163.805 169.43 163.409 169.281 162.942C169.141 162.475 169.071 161.957 169.071 161.388C169.071 160.819 169.145 160.301 169.295 159.834C169.444 159.367 169.659 158.971 169.939 158.644C170.219 158.308 170.559 158.051 170.961 157.874C171.362 157.697 171.819 157.608 172.333 157.608C173.033 157.608 173.602 157.762 174.041 158.07C174.479 158.378 174.801 158.779 175.007 159.274L174.111 159.75C173.98 159.377 173.761 159.087 173.453 158.882C173.154 158.677 172.781 158.574 172.333 158.574C172.006 158.574 171.712 158.63 171.451 158.742C171.199 158.845 170.984 158.994 170.807 159.19C170.629 159.386 170.494 159.619 170.401 159.89C170.317 160.161 170.275 160.455 170.275 160.772V162.004C170.275 162.321 170.317 162.615 170.401 162.886C170.494 163.157 170.629 163.39 170.807 163.586C170.984 163.782 171.203 163.936 171.465 164.048C171.726 164.151 172.025 164.202 172.361 164.202C172.846 164.202 173.247 164.09 173.565 163.866C173.882 163.642 174.134 163.334 174.321 162.942L175.119 163.488C174.904 163.973 174.568 164.375 174.111 164.692C173.663 165.009 173.075 165.168 172.347 165.168ZM180.615 165.168C180.092 165.168 179.621 165.079 179.201 164.902C178.79 164.725 178.436 164.473 178.137 164.146C177.848 163.81 177.624 163.413 177.465 162.956C177.306 162.489 177.227 161.971 177.227 161.402C177.227 160.823 177.306 160.301 177.465 159.834C177.633 159.367 177.862 158.971 178.151 158.644C178.44 158.308 178.786 158.051 179.187 157.874C179.598 157.697 180.05 157.608 180.545 157.608C181.03 157.608 181.469 157.697 181.861 157.874C182.262 158.051 182.603 158.299 182.883 158.616C183.163 158.924 183.378 159.293 183.527 159.722C183.676 160.151 183.751 160.623 183.751 161.136V161.668H178.403V162.004C178.403 162.321 178.454 162.615 178.557 162.886C178.66 163.157 178.804 163.39 178.991 163.586C179.187 163.782 179.42 163.936 179.691 164.048C179.971 164.151 180.279 164.202 180.615 164.202C181.1 164.202 181.52 164.09 181.875 163.866C182.23 163.642 182.5 163.334 182.687 162.942L183.513 163.502C183.298 163.987 182.939 164.389 182.435 164.706C181.94 165.014 181.334 165.168 180.615 165.168ZM180.545 158.532C180.237 158.532 179.952 158.588 179.691 158.7C179.43 158.812 179.201 158.966 179.005 159.162C178.818 159.358 178.669 159.591 178.557 159.862C178.454 160.123 178.403 160.413 178.403 160.73V160.828H182.547V160.674C182.547 160.357 182.496 160.067 182.393 159.806C182.3 159.545 182.164 159.321 181.987 159.134C181.819 158.938 181.609 158.789 181.357 158.686C181.114 158.583 180.844 158.532 180.545 158.532ZM188.968 165.168C188.212 165.168 187.558 165.042 187.008 164.79C186.466 164.529 186.004 164.183 185.622 163.754L186.378 163.096C186.723 163.46 187.101 163.74 187.512 163.936C187.922 164.132 188.417 164.23 188.996 164.23C189.556 164.23 190.013 164.132 190.368 163.936C190.732 163.731 190.914 163.413 190.914 162.984C190.914 162.797 190.876 162.643 190.802 162.522C190.736 162.391 190.643 162.289 190.522 162.214C190.4 162.139 190.265 162.083 190.116 162.046C189.966 161.999 189.808 161.962 189.64 161.934L188.506 161.766C188.254 161.729 187.978 161.677 187.68 161.612C187.39 161.547 187.124 161.444 186.882 161.304C186.639 161.155 186.434 160.959 186.266 160.716C186.107 160.473 186.028 160.156 186.028 159.764C186.028 159.4 186.098 159.087 186.238 158.826C186.387 158.555 186.592 158.331 186.854 158.154C187.115 157.967 187.423 157.832 187.778 157.748C188.132 157.655 188.52 157.608 188.94 157.608C189.593 157.608 190.158 157.711 190.634 157.916C191.119 158.121 191.534 158.406 191.88 158.77L191.152 159.456C191.068 159.353 190.96 159.251 190.83 159.148C190.708 159.036 190.554 158.938 190.368 158.854C190.19 158.761 189.98 158.686 189.738 158.63C189.495 158.574 189.215 158.546 188.898 158.546C188.328 158.546 187.89 158.644 187.582 158.84C187.283 159.036 187.134 159.321 187.134 159.694C187.134 159.881 187.166 160.039 187.232 160.17C187.306 160.291 187.404 160.389 187.526 160.464C187.647 160.539 187.782 160.599 187.932 160.646C188.09 160.683 188.249 160.716 188.408 160.744L189.542 160.912C189.803 160.949 190.078 161.001 190.368 161.066C190.657 161.131 190.923 161.239 191.166 161.388C191.408 161.528 191.609 161.719 191.768 161.962C191.936 162.205 192.02 162.522 192.02 162.914C192.02 163.633 191.74 164.188 191.18 164.58C190.629 164.972 189.892 165.168 188.968 165.168ZM121.184 186.826C121.184 187.554 120.881 188.091 120.274 188.436C119.667 188.791 118.757 188.968 117.544 188.968C116.377 188.968 115.537 188.814 115.024 188.506C114.52 188.198 114.268 187.755 114.268 187.176C114.268 186.784 114.371 186.481 114.576 186.266C114.781 186.051 115.071 185.893 115.444 185.79V185.622C115.239 185.519 115.08 185.389 114.968 185.23C114.856 185.071 114.8 184.871 114.8 184.628C114.8 184.255 114.921 183.975 115.164 183.788C115.416 183.601 115.729 183.461 116.102 183.368V183.312C115.654 183.116 115.304 182.827 115.052 182.444C114.809 182.061 114.688 181.613 114.688 181.1C114.688 180.736 114.753 180.4 114.884 180.092C115.015 179.784 115.201 179.523 115.444 179.308C115.696 179.084 115.995 178.911 116.34 178.79C116.685 178.669 117.068 178.608 117.488 178.608C118.029 178.608 118.505 178.706 118.916 178.902V178.776C118.916 178.496 118.981 178.263 119.112 178.076C119.243 177.889 119.467 177.796 119.784 177.796H121.114V178.776H119.49V179.266C119.751 179.49 119.952 179.756 120.092 180.064C120.232 180.372 120.302 180.717 120.302 181.1C120.302 181.464 120.232 181.8 120.092 182.108C119.961 182.416 119.775 182.682 119.532 182.906C119.289 183.121 118.991 183.289 118.636 183.41C118.291 183.531 117.908 183.592 117.488 183.592C117.367 183.592 117.25 183.587 117.138 183.578C117.026 183.569 116.914 183.555 116.802 183.536C116.69 183.555 116.573 183.587 116.452 183.634C116.331 183.671 116.219 183.727 116.116 183.802C116.013 183.867 115.929 183.947 115.864 184.04C115.799 184.133 115.766 184.241 115.766 184.362C115.766 184.577 115.873 184.721 116.088 184.796C116.303 184.861 116.583 184.894 116.928 184.894H118.524C119.457 184.894 120.134 185.071 120.554 185.426C120.974 185.771 121.184 186.238 121.184 186.826ZM120.134 186.882C120.134 186.593 120.017 186.359 119.784 186.182C119.551 186.014 119.145 185.93 118.566 185.93H116.06C115.575 186.126 115.332 186.453 115.332 186.91C115.332 187.227 115.458 187.498 115.71 187.722C115.962 187.955 116.382 188.072 116.97 188.072H118.062C118.715 188.072 119.224 187.969 119.588 187.764C119.952 187.568 120.134 187.274 120.134 186.882ZM117.488 182.724C118.048 182.724 118.459 182.593 118.72 182.332C118.991 182.071 119.126 181.725 119.126 181.296V180.89C119.126 180.461 118.991 180.12 118.72 179.868C118.459 179.607 118.048 179.476 117.488 179.476C116.928 179.476 116.517 179.607 116.256 179.868C115.995 180.12 115.864 180.461 115.864 180.89V181.296C115.864 181.725 115.995 182.071 116.256 182.332C116.517 182.593 116.928 182.724 117.488 182.724ZM126.051 186.168C125.528 186.168 125.057 186.079 124.637 185.902C124.226 185.725 123.871 185.473 123.573 185.146C123.283 184.81 123.059 184.413 122.901 183.956C122.742 183.489 122.663 182.971 122.663 182.402C122.663 181.823 122.742 181.301 122.901 180.834C123.069 180.367 123.297 179.971 123.587 179.644C123.876 179.308 124.221 179.051 124.623 178.874C125.033 178.697 125.486 178.608 125.981 178.608C126.466 178.608 126.905 178.697 127.297 178.874C127.698 179.051 128.039 179.299 128.319 179.616C128.599 179.924 128.813 180.293 128.963 180.722C129.112 181.151 129.187 181.623 129.187 182.136V182.668H123.839V183.004C123.839 183.321 123.89 183.615 123.993 183.886C124.095 184.157 124.24 184.39 124.427 184.586C124.623 184.782 124.856 184.936 125.127 185.048C125.407 185.151 125.715 185.202 126.051 185.202C126.536 185.202 126.956 185.09 127.311 184.866C127.665 184.642 127.936 184.334 128.123 183.942L128.949 184.502C128.734 184.987 128.375 185.389 127.871 185.706C127.376 186.014 126.769 186.168 126.051 186.168ZM125.981 179.532C125.673 179.532 125.388 179.588 125.127 179.7C124.865 179.812 124.637 179.966 124.441 180.162C124.254 180.358 124.105 180.591 123.993 180.862C123.89 181.123 123.839 181.413 123.839 181.73V181.828H127.983V181.674C127.983 181.357 127.931 181.067 127.829 180.806C127.735 180.545 127.6 180.321 127.423 180.134C127.255 179.938 127.045 179.789 126.793 179.686C126.55 179.583 126.279 179.532 125.981 179.532ZM131.491 186V178.776H132.611V179.952H132.667C132.742 179.775 132.835 179.607 132.947 179.448C133.059 179.28 133.194 179.135 133.353 179.014C133.521 178.893 133.717 178.795 133.941 178.72C134.165 178.645 134.426 178.608 134.725 178.608C135.481 178.608 136.088 178.851 136.545 179.336C137.002 179.812 137.231 180.489 137.231 181.366V186H136.111V181.562C136.111 180.899 135.966 180.409 135.677 180.092C135.388 179.765 134.963 179.602 134.403 179.602C134.179 179.602 133.96 179.63 133.745 179.686C133.53 179.742 133.339 179.826 133.171 179.938C133.003 180.05 132.868 180.195 132.765 180.372C132.662 180.549 132.611 180.755 132.611 180.988V186H131.491ZM142.84 186.168C142.317 186.168 141.846 186.079 141.426 185.902C141.015 185.725 140.66 185.473 140.362 185.146C140.072 184.81 139.848 184.413 139.69 183.956C139.531 183.489 139.452 182.971 139.452 182.402C139.452 181.823 139.531 181.301 139.69 180.834C139.858 180.367 140.086 179.971 140.376 179.644C140.665 179.308 141.01 179.051 141.412 178.874C141.822 178.697 142.275 178.608 142.77 178.608C143.255 178.608 143.694 178.697 144.086 178.874C144.487 179.051 144.828 179.299 145.108 179.616C145.388 179.924 145.602 180.293 145.752 180.722C145.901 181.151 145.976 181.623 145.976 182.136V182.668H140.628V183.004C140.628 183.321 140.679 183.615 140.782 183.886C140.884 184.157 141.029 184.39 141.216 184.586C141.412 184.782 141.645 184.936 141.916 185.048C142.196 185.151 142.504 185.202 142.84 185.202C143.325 185.202 143.745 185.09 144.1 184.866C144.454 184.642 144.725 184.334 144.912 183.942L145.738 184.502C145.523 184.987 145.164 185.389 144.66 185.706C144.165 186.014 143.558 186.168 142.84 186.168ZM142.77 179.532C142.462 179.532 142.177 179.588 141.916 179.7C141.654 179.812 141.426 179.966 141.23 180.162C141.043 180.358 140.894 180.591 140.782 180.862C140.679 181.123 140.628 181.413 140.628 181.73V181.828H144.772V181.674C144.772 181.357 144.72 181.067 144.618 180.806C144.524 180.545 144.389 180.321 144.212 180.134C144.044 179.938 143.834 179.789 143.582 179.686C143.339 179.583 143.068 179.532 142.77 179.532ZM147.986 185.048H150.1V179.728H147.986V178.776H151.22V180.596H151.29C151.44 180.027 151.72 179.583 152.13 179.266C152.55 178.939 153.082 178.776 153.726 178.776H154.734V179.896H153.376C152.732 179.896 152.21 180.083 151.808 180.456C151.416 180.829 151.22 181.319 151.22 181.926V185.048H154.02V186H147.986V185.048ZM162.233 186C161.794 186 161.481 185.888 161.295 185.664C161.108 185.44 160.991 185.16 160.945 184.824H160.875C160.716 185.244 160.459 185.575 160.105 185.818C159.759 186.051 159.293 186.168 158.705 186.168C157.949 186.168 157.347 185.972 156.899 185.58C156.451 185.188 156.227 184.651 156.227 183.97C156.227 183.298 156.469 182.78 156.955 182.416C157.449 182.052 158.243 181.87 159.335 181.87H160.875V181.156C160.875 180.624 160.725 180.227 160.427 179.966C160.128 179.695 159.703 179.56 159.153 179.56C158.667 179.56 158.271 179.658 157.963 179.854C157.655 180.041 157.407 180.297 157.221 180.624L156.465 180.064C156.558 179.877 156.684 179.695 156.843 179.518C157.001 179.341 157.197 179.187 157.431 179.056C157.664 178.916 157.93 178.809 158.229 178.734C158.527 178.65 158.859 178.608 159.223 178.608C160.072 178.608 160.744 178.823 161.239 179.252C161.743 179.681 161.995 180.279 161.995 181.044V185.02H163.003V186H162.233ZM158.901 185.23C159.19 185.23 159.451 185.197 159.685 185.132C159.927 185.057 160.137 184.964 160.315 184.852C160.492 184.731 160.627 184.591 160.721 184.432C160.823 184.264 160.875 184.087 160.875 183.9V182.71H159.335C158.663 182.71 158.173 182.803 157.865 182.99C157.557 183.177 157.403 183.447 157.403 183.802V184.096C157.403 184.469 157.533 184.754 157.795 184.95C158.065 185.137 158.434 185.23 158.901 185.23ZM168.247 186C167.697 186 167.291 185.846 167.029 185.538C166.777 185.23 166.651 184.833 166.651 184.348V179.728H164.243V178.776H166.035C166.278 178.776 166.446 178.729 166.539 178.636C166.642 178.533 166.693 178.361 166.693 178.118V176.228H167.771V178.776H171.061V179.728H167.771V185.048H171.061V186H168.247ZM176.74 177.18C176.413 177.18 176.184 177.115 176.054 176.984C175.923 176.844 175.858 176.671 175.858 176.466V176.242C175.858 176.037 175.923 175.869 176.054 175.738C176.184 175.598 176.413 175.528 176.74 175.528C177.066 175.528 177.295 175.598 177.426 175.738C177.556 175.869 177.622 176.037 177.622 176.242V176.466C177.622 176.671 177.556 176.844 177.426 176.984C177.295 177.115 177.066 177.18 176.74 177.18ZM173.576 185.048H176.18V179.728H173.576V178.776H177.3V185.048H179.736V186H173.576V185.048ZM184.686 186.168C184.182 186.168 183.725 186.079 183.314 185.902C182.913 185.725 182.568 185.473 182.278 185.146C181.998 184.81 181.784 184.413 181.634 183.956C181.485 183.489 181.41 182.967 181.41 182.388C181.41 181.819 181.485 181.301 181.634 180.834C181.784 180.367 181.998 179.971 182.278 179.644C182.568 179.308 182.913 179.051 183.314 178.874C183.725 178.697 184.182 178.608 184.686 178.608C185.19 178.608 185.643 178.697 186.044 178.874C186.455 179.051 186.8 179.308 187.08 179.644C187.37 179.971 187.589 180.367 187.738 180.834C187.888 181.301 187.962 181.819 187.962 182.388C187.962 182.967 187.888 183.489 187.738 183.956C187.589 184.413 187.37 184.81 187.08 185.146C186.8 185.473 186.455 185.725 186.044 185.902C185.643 186.079 185.19 186.168 184.686 186.168ZM184.686 185.202C185.312 185.202 185.816 185.015 186.198 184.642C186.581 184.269 186.772 183.69 186.772 182.906V181.87C186.772 181.086 186.581 180.507 186.198 180.134C185.816 179.761 185.312 179.574 184.686 179.574C184.061 179.574 183.557 179.761 183.174 180.134C182.792 180.507 182.6 181.086 182.6 181.87V182.906C182.6 183.69 182.792 184.269 183.174 184.642C183.557 185.015 184.061 185.202 184.686 185.202ZM190.253 186V178.776H191.373V179.952H191.429C191.504 179.775 191.597 179.607 191.709 179.448C191.821 179.28 191.956 179.135 192.115 179.014C192.283 178.893 192.479 178.795 192.703 178.72C192.927 178.645 193.188 178.608 193.487 178.608C194.243 178.608 194.85 178.851 195.307 179.336C195.764 179.812 195.993 180.489 195.993 181.366V186H194.873V181.562C194.873 180.899 194.728 180.409 194.439 180.092C194.15 179.765 193.725 179.602 193.165 179.602C192.941 179.602 192.722 179.63 192.507 179.686C192.292 179.742 192.101 179.826 191.933 179.938C191.765 180.05 191.63 180.195 191.527 180.372C191.424 180.549 191.373 180.755 191.373 180.988V186H190.253ZM201.559 186.168C200.803 186.168 200.15 186.042 199.599 185.79C199.058 185.529 198.596 185.183 198.213 184.754L198.969 184.096C199.315 184.46 199.693 184.74 200.103 184.936C200.514 185.132 201.009 185.23 201.587 185.23C202.147 185.23 202.605 185.132 202.959 184.936C203.323 184.731 203.505 184.413 203.505 183.984C203.505 183.797 203.468 183.643 203.393 183.522C203.328 183.391 203.235 183.289 203.113 183.214C202.992 183.139 202.857 183.083 202.707 183.046C202.558 182.999 202.399 182.962 202.231 182.934L201.097 182.766C200.845 182.729 200.57 182.677 200.271 182.612C199.982 182.547 199.716 182.444 199.473 182.304C199.231 182.155 199.025 181.959 198.857 181.716C198.699 181.473 198.619 181.156 198.619 180.764C198.619 180.4 198.689 180.087 198.829 179.826C198.979 179.555 199.184 179.331 199.445 179.154C199.707 178.967 200.015 178.832 200.369 178.748C200.724 178.655 201.111 178.608 201.531 178.608C202.185 178.608 202.749 178.711 203.225 178.916C203.711 179.121 204.126 179.406 204.471 179.77L203.743 180.456C203.659 180.353 203.552 180.251 203.421 180.148C203.3 180.036 203.146 179.938 202.959 179.854C202.782 179.761 202.572 179.686 202.329 179.63C202.087 179.574 201.807 179.546 201.489 179.546C200.92 179.546 200.481 179.644 200.173 179.84C199.875 180.036 199.725 180.321 199.725 180.694C199.725 180.881 199.758 181.039 199.823 181.17C199.898 181.291 199.996 181.389 200.117 181.464C200.239 181.539 200.374 181.599 200.523 181.646C200.682 181.683 200.841 181.716 200.999 181.744L202.133 181.912C202.395 181.949 202.67 182.001 202.959 182.066C203.249 182.131 203.515 182.239 203.757 182.388C204 182.528 204.201 182.719 204.359 182.962C204.527 183.205 204.611 183.522 204.611 183.914C204.611 184.633 204.331 185.188 203.771 185.58C203.221 185.972 202.483 186.168 201.559 186.168Z" fill="black"/>
</svg>
